<?xml version="1.0" standalone="no"?>
<!DOCTYPE svg PUBLIC "-//W3C//DTD SVG 20010904//EN"
 "http://www.w3.org/TR/2001/REC-SVG-20010904/DTD/svg10.dtd">
<svg version="1.0" xmlns="http://www.w3.org/2000/svg"
 width="927.000000pt" height="906.000000pt" viewBox="0 0 927.000000 906.000000"
 preserveAspectRatio="xMidYMid meet">

<g transform="translate(0.000000,906.000000) scale(0.100000,-0.100000)"
fill="#000000" stroke="none">
<path d="M3020 8955 l0 -35 -180 0 -180 0 0 -35 0 -35 -145 0 -145 0 0 -40 0
-40 -175 0 -175 0 0 -35 0 -35 -75 0 -75 0 0 -35 c0 -33 -2 -35 -35 -35 -33 0
-35 -2 -35 -35 l0 -35 -75 0 -75 0 0 -35 0 -35 -70 0 -70 0 0 -35 c0 -34 -1
-35 -40 -35 -39 0 -40 -1 -40 -35 0 -32 -2 -35 -30 -35 -28 0 -30 -3 -30 -35
l0 -35 -70 0 -70 0 0 -35 0 -35 -145 0 -145 0 0 -30 0 -30 -75 0 -75 0 0 -35
c0 -33 -2 -35 -35 -35 l-35 0 0 -70 0 -70 -75 0 -75 0 0 -45 c0 -45 0 -45 35
-45 l35 0 0 -70 0 -70 -35 0 -35 0 0 -70 0 -70 -35 0 c-33 0 -35 -2 -35 -35 0
-32 -2 -35 -30 -35 l-30 0 0 -75 0 -75 -40 0 -40 0 0 -70 0 -70 -35 0 c-33 0
-35 -2 -35 -35 0 -33 -2 -35 -35 -35 l-35 0 0 -145 0 -145 -35 0 -35 0 0 -135
0 -135 -40 0 -40 0 0 -210 0 -210 -35 0 -35 0 0 -255 0 -255 35 0 c33 0 35 -2
35 -35 0 -34 1 -35 40 -35 39 0 40 -1 40 -35 0 -33 2 -35 35 -35 34 0 35 -1
35 -40 l0 -40 70 0 70 0 0 -35 c0 -34 1 -35 40 -35 39 0 40 -1 40 -35 l0 -35
65 0 65 0 0 -30 0 -30 75 0 75 0 0 -35 0 -35 70 0 70 0 0 -460 0 -460 40 0 40
0 0 -215 0 -215 35 0 35 0 0 -175 0 -175 -35 0 c-34 0 -35 -1 -35 -40 l0 -40
-40 0 -40 0 0 -70 0 -70 40 0 40 0 0 -70 0 -70 35 0 35 0 0 -145 0 -145 35 0
35 0 0 -105 0 -105 35 0 c33 0 35 -2 35 -35 0 -34 1 -35 40 -35 l40 0 0 -530
0 -530 35 0 35 0 0 -255 0 -255 35 0 35 0 0 -205 0 -205 30 0 30 0 0 -70 0
-70 40 0 40 0 0 -70 0 -70 35 0 35 0 0 -110 0 -110 3815 0 3815 0 0 1985 0
1985 -35 0 -35 0 0 75 0 75 -40 0 -40 0 0 140 0 140 -35 0 -35 0 0 140 0 140
-35 0 -35 0 0 70 0 70 -35 0 c-33 0 -35 2 -35 35 0 33 -2 35 -35 35 -34 0 -35
1 -35 40 l0 40 -105 0 -105 0 0 35 0 35 -75 0 -75 0 0 35 0 35 -75 0 -75 0 0
35 c0 33 -2 35 -35 35 -32 0 -35 2 -35 30 l0 30 -70 0 -70 0 0 35 0 35 -75 0
-75 0 0 35 0 35 -65 0 -65 0 0 40 0 40 -40 0 c-39 0 -40 1 -40 35 l0 35 -70 0
-70 0 0 35 0 35 -360 0 -360 0 0 40 c0 39 -1 40 -35 40 -34 0 -35 -1 -35 -40
l0 -40 -185 0 -185 0 0 -35 0 -35 -70 0 -70 0 0 35 0 35 -360 0 -360 0 0 75 0
75 -35 0 -35 0 0 280 0 280 -35 0 -35 0 0 145 0 145 -40 0 -40 0 0 70 0 70
-35 0 -35 0 0 140 0 140 -35 0 -35 0 0 250 0 250 -40 0 -40 0 0 70 0 70 -30 0
-30 0 0 150 0 150 -35 0 c-33 0 -35 2 -35 35 0 33 2 35 35 35 33 0 35 2 35 35
0 33 -2 35 -35 35 l-35 0 0 65 0 65 -35 0 -35 0 0 70 0 70 -40 0 -40 0 0 70 0
70 -35 0 c-33 0 -35 2 -35 35 0 33 -2 35 -35 35 -33 0 -35 2 -35 35 0 34 -1
35 -40 35 -39 0 -40 1 -40 35 0 33 -2 35 -35 35 -34 0 -35 1 -35 40 l0 40 -70
0 -70 0 0 35 0 35 -575 0 -575 0 0 35 0 35 -110 0 -110 0 0 -35z m220 -70 l0
-35 575 0 575 0 0 -40 0 -40 70 0 70 0 0 -35 c0 -33 2 -35 35 -35 33 0 35 -2
35 -35 0 -34 1 -35 40 -35 39 0 40 -1 40 -35 0 -33 2 -35 35 -35 l35 0 0 -70
0 -70 35 0 35 0 0 -70 0 -70 40 0 40 0 0 -65 0 -65 35 0 c33 0 35 -2 35 -35 0
-33 -2 -35 -35 -35 -33 0 -35 -2 -35 -35 0 -33 2 -35 35 -35 l35 0 0 -150 0
-150 35 0 35 0 0 -70 0 -70 30 0 30 0 0 -250 0 -250 40 0 40 0 0 -140 0 -140
35 0 35 0 0 -70 0 -70 35 0 35 0 0 -145 0 -145 40 0 40 0 0 -280 0 -280 35 0
35 0 0 -75 0 -75 35 0 c33 0 35 -2 35 -35 l0 -35 360 0 360 0 0 -35 0 -35 70
0 70 0 0 35 0 35 185 0 185 0 0 35 c0 33 2 35 35 35 33 0 35 -2 35 -35 l0 -35
360 0 360 0 0 -35 0 -35 70 0 70 0 0 -40 0 -40 40 0 c39 0 40 -1 40 -35 l0
-35 65 0 65 0 0 -35 0 -35 75 0 75 0 0 -30 0 -30 70 0 70 0 0 -35 c0 -33 2
-35 35 -35 33 0 35 -2 35 -35 l0 -35 75 0 75 0 0 -35 0 -35 75 0 75 0 0 -40 0
-40 105 0 105 0 0 -35 c0 -33 2 -35 35 -35 l35 0 0 -70 0 -70 35 0 35 0 0
-140 0 -140 35 0 35 0 0 -140 0 -140 35 0 35 0 0 -75 0 -75 40 0 40 0 0 -500
0 -500 -75 0 -75 0 0 -70 0 -70 35 0 c33 0 35 -2 35 -35 0 -33 -2 -35 -35 -35
l-35 0 0 -105 0 -105 -35 0 -35 0 0 -70 0 -70 -70 0 -70 0 0 70 0 70 70 0 70
0 0 70 0 70 -70 0 -70 0 0 35 c0 33 -2 35 -35 35 -33 0 -35 2 -35 35 0 33 2
35 35 35 33 0 35 2 35 35 0 33 2 35 35 35 33 0 35 2 35 35 0 33 2 35 35 35
l35 0 0 145 0 145 -35 0 -35 0 0 150 0 150 -35 0 c-33 0 -35 2 -35 35 0 33 -2
35 -35 35 -33 0 -35 2 -35 35 l0 35 -70 0 -70 0 0 -35 c0 -34 -1 -35 -40 -35
l-40 0 0 65 0 65 -35 0 c-33 0 -35 2 -35 35 l0 35 110 0 110 0 0 70 0 70 -35
0 -35 0 0 75 0 75 -40 0 -40 0 0 70 0 70 -70 0 -70 0 0 -70 0 -70 35 0 c33 0
35 -2 35 -35 0 -33 -2 -35 -35 -35 -33 0 -35 2 -35 35 0 34 -1 35 -40 35 -39
0 -40 1 -40 35 0 33 -2 35 -35 35 -33 0 -35 2 -35 35 l0 35 -70 0 -70 0 0 -35
c0 -33 2 -35 35 -35 l35 0 0 -70 0 -70 35 0 c34 0 35 -1 35 -40 l0 -40 -70 0
-70 0 0 40 0 40 -40 0 -40 0 0 -145 0 -145 -35 0 -35 0 0 70 0 70 -30 0 -30 0
0 75 0 75 -35 0 c-33 0 -35 2 -35 35 0 34 -1 35 -40 35 -39 0 -40 1 -40 35 0
33 -2 35 -35 35 l-35 0 0 -70 0 -70 35 0 35 0 0 -75 0 -75 -35 0 -35 0 0 -70
0 -70 -35 0 c-33 0 -35 2 -35 35 0 34 -1 35 -40 35 l-40 0 0 145 0 145 -35 0
c-33 0 -35 -2 -35 -35 l0 -35 -70 0 -70 0 0 -110 0 -110 35 0 35 0 0 -135 0
-135 -35 0 -35 0 0 -75 0 -75 -40 0 -40 0 0 -40 c0 -39 -1 -40 -35 -40 l-35 0
0 -105 0 -105 35 0 35 0 0 -75 0 -75 -70 0 -70 0 0 75 0 75 -35 0 -35 0 0
-110 0 -110 35 0 c33 0 35 -2 35 -35 0 -33 2 -35 35 -35 l35 0 0 -100 0 -100
35 0 35 0 0 -210 0 -210 40 0 c38 0 40 2 40 30 0 28 3 30 35 30 33 0 35 2 35
35 0 33 2 35 35 35 33 0 35 -2 35 -35 0 -33 -2 -35 -35 -35 -32 0 -35 -2 -35
-30 0 -28 -3 -30 -35 -30 l-35 0 0 -215 0 -215 35 0 35 0 0 -70 0 -70 35 0 35
0 0 -75 0 -75 35 0 c33 0 35 -2 35 -35 0 -34 1 -35 40 -35 39 0 40 -1 40 -35
l0 -35 70 0 70 0 0 -70 0 -70 40 0 40 0 0 -150 0 -150 35 0 c32 0 35 -2 35
-30 0 -27 3 -30 30 -30 27 0 30 3 30 30 0 28 3 30 35 30 l35 0 0 -170 0 -170
40 0 40 0 0 -140 0 -140 70 0 70 0 0 -75 0 -75 -35 0 c-34 0 -35 1 -35 40 0
39 -1 40 -35 40 -34 0 -35 -1 -35 -40 l0 -40 -40 0 c-39 0 -40 -1 -40 -35 l0
-35 -1290 0 -1290 0 0 35 c0 34 -1 35 -40 35 -39 0 -40 -1 -40 -35 0 -33 -2
-35 -35 -35 -33 0 -35 2 -35 35 0 33 -2 35 -35 35 -33 0 -35 -2 -35 -35 l0
-35 -250 0 -250 0 0 250 0 250 35 0 35 0 0 70 0 70 35 0 35 0 0 70 0 70 40 0
40 0 0 65 0 65 35 0 35 0 0 80 0 80 35 0 35 0 0 70 0 70 30 0 30 0 0 70 0 70
40 0 40 0 0 70 0 70 35 0 35 0 0 110 0 110 -35 0 -35 0 0 70 0 70 70 0 70 0 0
70 0 70 40 0 40 0 0 105 0 105 35 0 35 0 0 70 0 70 35 0 35 0 0 110 0 110 35
0 35 0 0 65 0 65 -35 0 c-33 0 -35 -2 -35 -35 0 -33 -2 -35 -35 -35 -33 0 -35
2 -35 35 0 33 -2 35 -35 35 -33 0 -35 2 -35 35 l0 35 -75 0 -75 0 0 -35 c0
-33 -2 -35 -35 -35 l-35 0 0 145 0 145 -40 0 -40 0 0 70 0 70 40 0 c39 0 40 1
40 35 0 33 2 35 35 35 33 0 35 2 35 35 0 33 -2 35 -35 35 l-35 0 0 150 0 150
-40 0 c-39 0 -40 1 -40 35 0 32 -2 35 -30 35 l-30 0 0 -70 0 -70 -70 0 -70 0
0 70 0 70 -40 0 -40 0 0 -110 0 -110 -35 0 -35 0 0 -75 0 -75 35 0 c34 0 35 1
35 40 l0 40 40 0 40 0 0 -145 0 -145 -40 0 -40 0 0 -110 0 -110 -35 0 -35 0 0
-70 0 -70 -35 0 c-33 0 -35 -2 -35 -35 0 -34 -1 -35 -40 -35 -39 0 -40 1 -40
35 0 34 1 35 40 35 39 0 40 1 40 35 0 34 -1 35 -40 35 l-40 0 0 110 0 110 -35
0 -35 0 0 70 0 70 -35 0 -35 0 0 70 0 70 35 0 35 0 0 185 0 185 75 0 75 0 0
-35 c0 -33 2 -35 35 -35 l35 0 0 210 0 210 35 0 35 0 0 140 0 140 -35 0 -35 0
0 175 0 175 35 0 c33 0 35 2 35 35 l0 35 110 0 110 0 0 35 c0 32 2 35 30 35
l30 0 0 110 0 110 75 0 75 0 0 70 0 70 -35 0 -35 0 0 100 0 100 -70 0 -70 0 0
40 0 40 70 0 70 0 0 35 c0 33 2 35 35 35 33 0 35 2 35 35 0 33 2 35 35 35 l35
0 0 145 0 145 -70 0 -70 0 0 40 0 40 -70 0 -70 0 0 35 c0 33 -2 35 -35 35
l-35 0 0 70 0 70 -35 0 -35 0 0 140 0 140 35 0 35 0 0 280 0 280 -35 0 -35 0
0 70 0 70 35 0 c33 0 35 2 35 35 0 33 -2 35 -35 35 -33 0 -35 2 -35 35 0 34
-1 35 -40 35 l-40 0 0 110 0 110 -35 0 c-33 0 -35 2 -35 35 0 33 2 35 35 35
33 0 35 2 35 35 0 33 -2 35 -35 35 -33 0 -35 2 -35 35 0 33 2 35 35 35 l35 0
0 150 0 150 -35 0 c-33 0 -35 2 -35 35 l0 35 -75 0 -75 0 0 -185 0 -185 40 0
40 0 0 -105 0 -105 -40 0 c-39 0 -40 1 -40 35 0 33 -2 35 -35 35 l-35 0 0 -70
0 -70 35 0 c33 0 35 -2 35 -35 0 -34 1 -35 40 -35 l40 0 0 -110 0 -110 35 0
35 0 0 -105 0 -105 35 0 35 0 0 -455 0 -455 40 0 40 0 0 -75 0 -75 70 0 70 0
0 -35 c0 -32 2 -35 30 -35 l30 0 0 -70 0 -70 -30 0 c-28 0 -30 -2 -30 -40 l0
-40 -70 0 -70 0 0 40 0 40 -40 0 -40 0 0 -110 0 -110 75 0 75 0 0 -75 0 -75
-35 0 -35 0 0 -100 0 -100 -40 0 -40 0 0 -70 0 -70 40 0 40 0 0 -40 0 -40 -75
0 -75 0 0 40 0 40 -75 0 -75 0 0 -40 0 -40 40 0 c39 0 40 -1 40 -35 0 -33 2
-35 35 -35 33 0 35 -2 35 -35 0 -33 -2 -35 -35 -35 l-35 0 0 -135 0 -135 -75
0 -75 0 0 100 0 100 35 0 c33 0 35 2 35 35 0 33 -2 35 -35 35 l-35 0 0 70 0
70 -35 0 -35 0 0 -105 0 -105 -35 0 c-33 0 -35 -2 -35 -35 0 -34 -1 -35 -40
-35 l-40 0 0 -65 0 -65 -35 0 -35 0 0 -110 0 -110 35 0 35 0 0 -105 0 -105
-35 0 -35 0 0 -75 0 -75 35 0 c33 0 35 -2 35 -35 0 -34 1 -35 40 -35 l40 0 0
180 0 180 35 0 35 0 0 -180 0 -180 -35 0 -35 0 0 -65 0 -65 35 0 c33 0 35 -2
35 -35 0 -33 -2 -35 -35 -35 l-35 0 0 -150 0 -150 -75 0 -75 0 0 40 c0 39 -1
40 -35 40 -33 0 -35 2 -35 35 l0 35 -70 0 -70 0 0 -35 c0 -34 1 -35 40 -35
l40 0 0 -40 c0 -38 2 -40 30 -40 28 0 30 -3 30 -35 0 -33 2 -35 35 -35 33 0
35 -2 35 -35 0 -33 2 -35 35 -35 l35 0 0 -110 0 -110 75 0 75 0 0 -105 0 -105
35 0 35 0 0 -65 0 -65 35 0 35 0 0 -110 0 -110 -35 0 c-33 0 -35 -2 -35 -35 0
-33 -2 -35 -35 -35 l-35 0 0 -65 0 -65 -35 0 -35 0 0 -75 0 -75 -40 0 c-39 0
-40 -1 -40 -35 0 -33 -2 -35 -35 -35 -33 0 -35 -2 -35 -35 0 -33 2 -35 35 -35
33 0 35 -2 35 -35 0 -33 -2 -35 -35 -35 -33 0 -35 -2 -35 -35 0 -33 -2 -35
-35 -35 l-35 0 0 -70 0 -70 35 0 c33 0 35 2 35 35 0 33 2 35 35 35 33 0 35 2
35 35 0 34 1 35 40 35 39 0 40 1 40 35 0 33 2 35 35 35 33 0 35 2 35 35 0 33
2 35 35 35 l35 0 0 70 0 70 35 0 c34 0 35 1 35 40 l0 40 40 0 40 0 0 65 0 65
35 0 35 0 0 70 0 70 35 0 35 0 0 70 0 70 40 0 40 0 0 -70 0 -70 35 0 35 0 0
-100 0 -100 -35 0 c-33 0 -35 -2 -35 -35 0 -34 -1 -35 -40 -35 l-40 0 0 -40 0
-40 40 0 c39 0 40 -1 40 -35 0 -33 2 -35 35 -35 33 0 35 -2 35 -35 0 -33 2
-35 35 -35 33 0 35 -2 35 -35 0 -33 -2 -35 -35 -35 -33 0 -35 2 -35 35 0 33
-2 35 -35 35 -33 0 -35 2 -35 35 l0 35 -75 0 -75 0 0 -35 0 -35 -75 0 -75 0 0
-35 c0 -33 -2 -35 -35 -35 -33 0 -35 -2 -35 -35 0 -33 -2 -35 -35 -35 -33 0
-35 -2 -35 -35 0 -33 -2 -35 -35 -35 -33 0 -35 -2 -35 -35 0 -34 -1 -35 -40
-35 l-40 0 0 -40 c0 -39 -1 -40 -35 -40 -33 0 -35 -2 -35 -35 l0 -35 -65 0
-65 0 0 -35 c0 -34 -1 -35 -40 -35 -39 0 -40 -1 -40 -35 l0 -35 -110 0 -110 0
0 -35 0 -35 -250 0 -250 0 0 -35 c0 -33 -2 -35 -35 -35 -33 0 -35 -2 -35 -35
0 -33 -2 -35 -35 -35 l-35 0 0 105 0 105 35 0 35 0 0 70 0 70 -35 0 -35 0 0
110 0 110 -35 0 c-33 0 -35 -2 -35 -35 0 -34 -1 -35 -40 -35 l-40 0 0 -40 c0
-39 -1 -40 -35 -40 l-35 0 0 -70 0 -70 -35 0 c-33 0 -35 -2 -35 -35 0 -33 -2
-35 -35 -35 -33 0 -35 -2 -35 -35 0 -34 -1 -35 -40 -35 l-40 0 0 -70 0 -70
-35 0 -35 0 0 175 0 175 75 0 75 0 0 -35 c0 -33 2 -35 35 -35 l35 0 0 145 0
145 35 0 35 0 0 140 0 140 35 0 35 0 0 110 0 110 -35 0 c-33 0 -35 -2 -35 -35
0 -33 -2 -35 -35 -35 -34 0 -35 -1 -35 -40 0 -39 -1 -40 -35 -40 -33 0 -35 -2
-35 -35 0 -34 -1 -35 -40 -35 -39 0 -40 -1 -40 -35 0 -33 -2 -35 -35 -35 l-35
0 0 -140 0 -140 -35 0 -35 0 0 -110 0 -110 -35 0 c-33 0 -35 -2 -35 -35 0 -34
-1 -35 -40 -35 -39 0 -40 1 -40 35 l0 35 -105 0 -105 0 0 35 c0 34 1 35 40 35
39 0 40 1 40 35 l0 35 -75 0 -75 0 0 40 c0 39 -1 40 -35 40 -34 0 -35 -1 -35
-40 0 -39 -1 -40 -35 -40 -34 0 -35 1 -35 40 0 39 1 40 35 40 l35 0 0 70 0 70
-110 0 -110 0 0 -145 0 -145 35 0 35 0 0 -105 0 -105 40 0 40 0 0 -70 0 -70
35 0 c35 0 35 0 35 -45 0 -45 0 -45 35 -45 33 0 35 -2 35 -35 0 -33 2 -35 35
-35 33 0 35 -2 35 -35 0 -34 1 -35 40 -35 38 0 40 -2 40 -30 0 -27 3 -30 30
-30 l30 0 0 -70 0 -70 35 0 c33 0 35 -2 35 -35 0 -34 1 -35 40 -35 39 0 40 -1
40 -35 0 -33 2 -35 35 -35 33 0 35 -2 35 -35 0 -33 2 -35 35 -35 33 0 35 -2
35 -35 0 -33 2 -35 35 -35 33 0 35 -2 35 -35 0 -34 1 -35 40 -35 39 0 40 -1
40 -35 0 -33 2 -35 35 -35 33 0 35 -2 35 -35 0 -33 2 -35 35 -35 l35 0 0 -75
0 -75 -650 0 -650 0 0 75 0 75 -35 0 -35 0 0 70 0 70 -35 0 -35 0 0 70 0 70
-40 0 -40 0 0 205 0 205 -30 0 -30 0 0 255 0 255 -35 0 -35 0 0 530 0 530 -35
0 c-33 0 -35 2 -35 35 0 34 -1 35 -40 35 l-40 0 0 105 0 105 -35 0 -35 0 0
145 0 145 -35 0 -35 0 0 70 0 70 -35 0 -35 0 0 70 0 70 35 0 c34 0 35 1 35 40
0 39 1 40 35 40 l35 0 0 175 0 175 -35 0 -35 0 0 215 0 215 -35 0 -35 0 0 350
0 350 35 0 35 0 0 -105 0 -105 35 0 c33 0 35 -2 35 -35 0 -33 2 -35 35 -35
l35 0 0 -65 0 -65 40 0 40 0 0 -40 c0 -39 1 -40 35 -40 33 0 35 -2 35 -35 0
-33 2 -35 35 -35 33 0 35 -2 35 -35 0 -32 2 -35 30 -35 28 0 30 -3 30 -35 0
-32 -2 -35 -30 -35 -28 0 -30 -3 -30 -35 0 -33 -2 -35 -35 -35 -33 0 -35 -2
-35 -35 l0 -35 105 0 105 0 0 70 0 70 70 0 70 0 0 35 c0 34 1 35 40 35 39 0
40 1 40 35 l0 35 -110 0 -110 0 0 75 0 75 35 0 35 0 0 100 0 100 35 0 c33 0
35 2 35 35 0 34 1 35 40 35 39 0 40 -1 40 -35 0 -33 2 -35 35 -35 33 0 35 2
35 35 l0 35 180 0 180 0 0 -35 0 -35 75 0 75 0 0 35 c0 34 -1 35 -40 35 -39 0
-40 1 -40 35 l0 35 70 0 70 0 0 -35 0 -35 75 0 75 0 0 -70 0 -70 145 0 145 0
0 -35 c0 -33 2 -35 35 -35 l35 0 0 70 0 70 110 0 110 0 0 35 0 35 70 0 70 0 0
-35 0 -35 -70 0 -70 0 0 -35 c0 -34 -1 -35 -40 -35 l-40 0 0 -65 0 -65 40 0
40 0 0 -40 0 -40 -40 0 -40 0 0 -70 0 -70 40 0 c39 0 40 1 40 35 0 33 2 35 35
35 l35 0 0 -70 0 -70 -75 0 -75 0 0 -70 0 -70 40 0 c39 0 40 1 40 35 0 33 2
35 35 35 l35 0 0 -75 0 -75 35 0 35 0 0 75 0 75 35 0 35 0 0 105 0 105 35 0
35 0 0 75 0 75 70 0 70 0 0 30 0 30 110 0 110 0 0 -30 0 -30 75 0 75 0 0 30 0
30 110 0 110 0 0 35 c0 32 2 35 30 35 28 0 30 3 30 35 0 33 2 35 35 35 33 0
35 2 35 35 0 33 2 35 35 35 33 0 35 2 35 35 0 33 -2 35 -35 35 -33 0 -35 2
-35 35 0 33 2 35 35 35 l35 0 0 110 0 110 40 0 c39 0 40 1 40 35 l0 35 -75 0
-75 0 0 -35 0 -35 -65 0 -65 0 0 -35 c0 -34 -1 -35 -40 -35 -39 0 -40 -1 -40
-35 l0 -35 -145 0 -145 0 0 -40 0 -40 -70 0 -70 0 0 -35 0 -35 -110 0 -110 0
0 35 0 35 -105 0 -105 0 0 40 c0 39 -1 40 -35 40 l-35 0 0 105 0 105 35 0 35
0 0 65 0 65 -75 0 -75 0 0 35 c0 33 -2 35 -35 35 -34 0 -35 1 -35 40 0 39 -1
40 -35 40 l-35 0 0 110 0 110 -35 0 c-33 0 -35 2 -35 35 0 33 2 35 35 35 33 0
35 -2 35 -35 0 -33 2 -35 35 -35 l35 0 0 -75 0 -75 35 0 c33 0 35 -2 35 -35 0
-34 1 -35 40 -35 l40 0 0 -40 c0 -39 1 -40 35 -40 33 0 35 -2 35 -35 0 -33 2
-35 35 -35 33 0 35 2 35 35 l0 35 70 0 70 0 0 40 0 40 145 0 145 0 0 -40 0
-40 70 0 70 0 0 -35 c0 -34 1 -35 40 -35 l40 0 0 75 0 75 35 0 c33 0 35 2 35
35 0 33 -2 35 -35 35 l-35 0 0 110 0 110 35 0 35 0 0 180 0 180 35 0 35 0 0
-70 0 -70 40 0 40 0 0 -110 0 -110 65 0 65 0 0 -35 c0 -33 2 -35 35 -35 34 0
35 -1 35 -40 l0 -40 75 0 75 0 0 40 c0 39 1 40 35 40 l35 0 0 -75 0 -75 35 0
c33 0 35 -2 35 -35 0 -34 1 -35 40 -35 l40 0 0 145 0 145 -40 0 -40 0 0 70 0
70 40 0 40 0 0 110 0 110 -40 0 c-39 0 -40 -1 -40 -35 0 -33 -2 -35 -35 -35
-33 0 -35 -2 -35 -35 0 -33 -2 -35 -35 -35 l-35 0 0 -75 0 -75 -35 0 -35 0 0
215 0 215 35 0 35 0 0 70 0 70 35 0 35 0 0 105 0 105 -35 0 c-33 0 -35 -2 -35
-35 0 -33 -2 -35 -35 -35 l-35 0 0 -70 0 -70 -40 0 -40 0 0 -40 c0 -39 -1 -40
-35 -40 -32 0 -35 -2 -35 -30 l0 -30 -65 0 -65 0 0 30 c0 28 -2 30 -40 30
l-40 0 0 75 0 75 -35 0 -35 0 0 70 0 70 -75 0 -75 0 0 35 c0 33 -2 35 -35 35
-33 0 -35 2 -35 35 l0 35 75 0 75 0 0 140 0 140 35 0 35 0 0 105 0 105 -35 0
c-33 0 -35 2 -35 35 0 34 -1 35 -40 35 l-40 0 0 40 0 40 -70 0 -70 0 0 35 0
35 -145 0 -145 0 0 -35 0 -35 -140 0 -140 0 0 -40 0 -40 -40 0 c-39 0 -40 -1
-40 -35 0 -33 -2 -35 -35 -35 -33 0 -35 -2 -35 -35 0 -33 -2 -35 -35 -35 l-35
0 0 -180 0 -180 35 0 35 0 0 -65 0 -65 35 0 c33 0 35 2 35 35 0 34 1 35 40 35
l40 0 0 -215 0 -215 35 0 35 0 0 -170 0 -170 -35 0 c-34 0 -35 -1 -35 -40 l0
-40 -185 0 -185 0 0 -35 0 -35 -70 0 -70 0 0 35 c0 33 -2 35 -35 35 -33 0 -35
-2 -35 -35 0 -34 -1 -35 -40 -35 -39 0 -40 1 -40 35 l0 35 -105 0 -105 0 0 40
c0 39 -1 40 -35 40 l-35 0 0 105 0 105 35 0 c33 0 35 2 35 35 l0 35 -105 0
-105 0 0 -35 c0 -34 -1 -35 -40 -35 l-40 0 0 -180 0 -180 40 0 40 0 0 -70 0
-70 35 0 c34 0 35 -1 35 -40 0 -39 1 -40 35 -40 33 0 35 -2 35 -35 0 -33 2
-35 35 -35 33 0 35 -2 35 -35 0 -34 1 -35 40 -35 l40 0 0 -40 c0 -38 2 -40 30
-40 28 0 30 -3 30 -35 l0 -35 75 0 75 0 0 -35 c0 -33 2 -35 35 -35 32 0 35 -2
35 -30 0 -28 3 -30 35 -30 33 0 35 -2 35 -35 0 -33 2 -35 35 -35 33 0 35 -2
35 -35 0 -34 1 -35 40 -35 39 0 40 -1 40 -35 0 -33 2 -35 35 -35 34 0 35 -1
35 -40 0 -39 -1 -40 -35 -40 -34 0 -35 1 -35 40 l0 40 -40 0 c-39 0 -40 1 -40
35 0 33 -2 35 -35 35 -33 0 -35 2 -35 35 l0 35 -70 0 -70 0 0 -35 c0 -33 2
-35 35 -35 l35 0 0 -75 0 -75 -35 0 c-34 0 -35 1 -35 40 l0 40 -40 0 c-39 0
-40 1 -40 35 0 33 -2 35 -35 35 -33 0 -35 2 -35 35 0 32 -2 35 -30 35 l-30 0
0 100 0 100 -40 0 c-39 0 -40 1 -40 35 0 33 -2 35 -35 35 -34 0 -35 1 -35 40
l0 40 -70 0 -70 0 0 -40 c0 -39 1 -40 35 -40 l35 0 0 -70 0 -70 -75 0 -75 0 0
70 0 70 -105 0 -105 0 0 185 0 185 35 0 35 0 0 145 0 145 -35 0 c-33 0 -35 2
-35 35 l0 35 -75 0 -75 0 0 -110 0 -110 35 0 c33 0 35 -2 35 -35 0 -33 -2 -35
-35 -35 l-35 0 0 -70 0 -70 -35 0 -35 0 0 105 0 105 -40 0 -40 0 0 110 0 110
-30 0 -30 0 0 210 0 210 -35 0 c-33 0 -35 2 -35 35 0 33 2 35 35 35 33 0 35 2
35 35 0 33 -2 35 -35 35 l-35 0 0 105 0 105 35 0 c33 0 35 2 35 35 0 33 -2 35
-35 35 l-35 0 0 70 0 70 -110 0 -110 0 0 35 c0 33 2 35 35 35 l35 0 0 180 0
180 -35 0 c-33 0 -35 -2 -35 -35 0 -33 -2 -35 -35 -35 -33 0 -35 -2 -35 -35 0
-33 -2 -35 -35 -35 l-35 0 0 105 0 105 -40 0 -40 0 0 -250 0 -250 40 0 40 0 0
-175 0 -175 -40 0 c-39 0 -40 -1 -40 -35 l0 -35 110 0 110 0 0 -70 0 -70 35 0
35 0 0 -70 0 -70 40 0 40 0 0 -105 0 -105 -40 0 c-39 0 -40 1 -40 35 0 33 -2
35 -35 35 l-35 0 0 140 0 140 -70 0 -70 0 0 -110 0 -110 35 0 35 0 0 -65 0
-65 -35 0 -35 0 0 -145 0 -145 70 0 70 0 0 -35 c0 -33 2 -35 35 -35 33 0 35
-2 35 -35 0 -34 1 -35 40 -35 39 0 40 -1 40 -35 0 -33 2 -35 35 -35 l35 0 0
105 0 105 -35 0 -35 0 0 110 0 110 35 0 35 0 0 -110 0 -110 35 0 35 0 0 -105
0 -105 30 0 30 0 0 -110 0 -110 40 0 40 0 0 -175 0 -175 -40 0 c-39 0 -40 -1
-40 -35 0 -32 -2 -35 -30 -35 -28 0 -30 3 -30 35 0 33 -2 35 -35 35 l-35 0 0
-70 0 -70 -35 0 -35 0 0 -110 0 -110 -40 0 -40 0 0 70 0 70 -35 0 -35 0 0 75
0 75 -35 0 c-33 0 -35 -2 -35 -35 0 -33 -2 -35 -35 -35 l-35 0 0 70 0 70 -40
0 c-39 0 -40 1 -40 35 l0 35 -70 0 -70 0 0 30 0 30 -75 0 -75 0 0 35 0 35 -65
0 -65 0 0 35 c0 34 -1 35 -40 35 l-40 0 0 40 0 40 -70 0 -70 0 0 35 c0 33 -2
35 -35 35 -33 0 -35 2 -35 35 0 34 -1 35 -40 35 l-40 0 0 255 0 255 40 0 40 0
0 210 0 210 35 0 35 0 0 135 0 135 35 0 35 0 0 145 0 145 35 0 c33 0 35 2 35
35 0 34 1 35 40 35 l40 0 0 70 0 70 30 0 30 0 0 75 0 75 35 0 c33 0 35 2 35
35 0 33 2 35 35 35 l35 0 0 70 0 70 40 0 40 0 0 115 0 115 35 0 35 0 0 70 0
70 75 0 75 0 0 35 0 35 145 0 145 0 0 30 0 30 70 0 70 0 0 35 c0 32 2 35 30
35 28 0 30 3 30 35 0 34 1 35 40 35 39 0 40 1 40 35 l0 35 70 0 70 0 0 35 0
35 75 0 75 0 0 35 c0 33 2 35 35 35 33 0 35 2 35 35 l0 35 75 0 75 0 0 35 0
35 175 0 175 0 0 35 0 35 145 0 145 0 0 40 0 40 180 0 180 0 0 35 0 35 110 0
110 0 0 -35z m-1150 -2870 l0 -75 -35 0 -35 0 0 75 0 75 35 0 35 0 0 -75z
m1150 -470 c0 -33 -2 -35 -35 -35 -33 0 -35 2 -35 35 0 33 2 35 35 35 33 0 35
-2 35 -35z m-1440 -250 l0 -65 35 0 c33 0 35 -2 35 -35 0 -33 -2 -35 -35 -35
-33 0 -35 2 -35 35 0 33 -2 35 -35 35 l-35 0 0 65 0 65 35 0 35 0 0 -65z m140
-350 l0 -75 -35 0 -35 0 0 75 0 75 35 0 35 0 0 -75z m1660 -250 l0 -35 -110 0
-110 0 0 35 0 35 110 0 110 0 0 -35z m860 -245 l0 -140 -35 0 -35 0 0 140 0
140 35 0 35 0 0 -140z m4110 -955 c0 -34 -1 -35 -40 -35 -39 0 -40 1 -40 35 0
34 1 35 40 35 39 0 40 -1 40 -35z m-3470 -855 c0 -38 -2 -40 -30 -40 -28 0
-30 -3 -30 -35 0 -33 -2 -35 -35 -35 -33 0 -35 2 -35 35 0 33 2 35 35 35 34 0
35 1 35 40 0 38 2 40 30 40 28 0 30 -2 30 -40z m370 0 c0 -39 -1 -40 -35 -40
-33 0 -35 -2 -35 -35 0 -34 -1 -35 -40 -35 -39 0 -40 1 -40 35 0 34 1 35 40
35 l40 0 0 40 c0 39 1 40 35 40 34 0 35 -1 35 -40z m3670 -745 l0 -705 -40 0
c-39 0 -40 1 -40 35 l0 35 -70 0 -70 0 0 35 c0 33 -2 35 -35 35 -33 0 -35 2
-35 35 l0 35 -140 0 -140 0 0 -35 0 -35 -150 0 -150 0 0 70 0 70 40 0 c39 0
40 1 40 35 l0 35 70 0 70 0 0 35 c0 34 1 35 40 35 39 0 40 -1 40 -35 l0 -35
105 0 105 0 0 35 0 35 105 0 105 0 0 145 0 145 -35 0 -35 0 0 105 0 105 -35 0
c-34 0 -35 1 -35 40 0 39 -1 40 -35 40 l-35 0 0 65 0 65 35 0 c33 0 35 2 35
35 l0 35 70 0 70 0 0 35 c0 33 2 35 35 35 l35 0 0 70 0 70 40 0 40 0 0 -705z
m-3890 395 c0 -28 -3 -30 -35 -30 -32 0 -35 2 -35 30 0 28 3 30 35 30 32 0 35
-2 35 -30z m-70 -140 l0 -40 -40 0 -40 0 0 40 0 40 40 0 40 0 0 -40z m-140
-465 l0 -75 -35 0 -35 0 0 75 0 75 35 0 35 0 0 -75z m-1940 -285 l0 -70 -40 0
c-39 0 -40 -1 -40 -35 0 -33 -2 -35 -35 -35 l-35 0 0 70 0 70 35 0 c33 0 35 2
35 35 0 34 1 35 40 35 l40 0 0 -70z m-940 -35 c0 -33 2 -35 35 -35 33 0 35 -2
35 -35 0 -34 1 -35 40 -35 39 0 40 -1 40 -35 0 -32 2 -35 30 -35 29 0 30 -2
30 -45 0 -45 0 -45 35 -45 33 0 35 -2 35 -35 0 -34 1 -35 40 -35 39 0 40 -1
40 -35 0 -33 2 -35 35 -35 32 0 35 -2 35 -30 0 -28 -3 -30 -35 -30 -32 0 -35
2 -35 30 0 28 -2 30 -40 30 -39 0 -40 1 -40 35 l0 35 -65 0 -65 0 0 35 c0 34
-1 35 -40 35 l-40 0 0 45 c0 45 0 45 -35 45 -33 0 -35 2 -35 35 0 33 -2 35
-35 35 l-35 0 0 70 0 70 35 0 c33 0 35 -2 35 -35z m2740 0 c0 -34 -1 -35 -40
-35 -39 0 -40 -1 -40 -35 0 -33 -2 -35 -35 -35 l-35 0 0 -80 0 -80 -35 0 c-33
0 -35 -2 -35 -35 0 -34 -1 -35 -40 -35 -39 0 -40 -1 -40 -35 0 -33 -2 -35 -35
-35 -33 0 -35 2 -35 35 0 33 2 35 35 35 33 0 35 2 35 35 0 34 1 35 40 35 l40
0 0 80 0 80 35 0 c33 0 35 2 35 35 0 33 2 35 35 35 33 0 35 2 35 35 0 34 1 35
40 35 39 0 40 -1 40 -35z m4020 -335 l0 -70 -35 0 -35 0 0 70 0 70 35 0 35 0
0 -70z m220 -65 l0 -65 -40 0 c-38 0 -40 2 -40 30 0 28 -3 30 -35 30 -33 0
-35 2 -35 35 l0 35 75 0 75 0 0 -65z m-4610 -170 c0 -33 -2 -35 -35 -35 l-35
0 0 -140 0 -140 -35 0 -35 0 0 -180 0 -180 -40 0 -40 0 0 250 0 250 40 0 40 0
0 70 0 70 35 0 c33 0 35 2 35 35 0 33 2 35 35 35 33 0 35 -2 35 -35z m-1580
-140 c0 -33 2 -35 35 -35 33 0 35 -2 35 -35 0 -34 1 -35 40 -35 39 0 40 -1 40
-35 0 -33 2 -35 35 -35 l35 0 0 -70 0 -70 35 0 35 0 0 -75 0 -75 35 0 c33 0
35 -2 35 -35 l0 -35 -70 0 -70 0 0 75 0 75 -35 0 -35 0 0 70 0 70 -40 0 c-39
0 -40 1 -40 35 0 33 -2 35 -35 35 -33 0 -35 2 -35 35 0 33 -2 35 -35 35 l-35
0 0 70 0 70 35 0 c33 0 35 -2 35 -35z m790 -425 l0 -110 -70 0 -70 0 0 110 0
110 70 0 70 0 0 -110z"/>
<path d="M4390 8180 c0 -28 3 -30 35 -30 33 0 35 -2 35 -35 0 -33 2 -35 35
-35 33 0 35 2 35 35 0 33 2 35 35 35 32 0 35 2 35 30 l0 30 -105 0 -105 0 0
-30z"/>
<path d="M2160 7825 l0 -115 -70 0 -70 0 0 -35 c0 -34 -1 -35 -40 -35 -39 0
-40 -1 -40 -35 0 -33 -2 -35 -35 -35 -33 0 -35 -2 -35 -35 0 -33 -2 -35 -35
-35 l-35 0 0 -75 0 -75 -35 0 -35 0 0 -105 0 -105 -75 0 -75 0 0 -35 c0 -33
-2 -35 -35 -35 -33 0 -35 -2 -35 -35 0 -34 -1 -35 -40 -35 l-40 0 0 70 0 70
-30 0 -30 0 0 -70 0 -70 30 0 c28 0 30 -3 30 -35 l0 -35 75 0 75 0 0 35 0 35
75 0 75 0 0 35 c0 33 2 35 35 35 l35 0 0 105 0 105 180 0 180 0 0 35 0 35 140
0 140 0 0 40 0 40 40 0 40 0 0 140 0 140 -105 0 -105 0 0 70 0 70 -40 0 -40 0
0 45 c0 45 0 45 -35 45 l-35 0 0 -115z"/>
<path d="M570 7175 c0 -33 -2 -35 -35 -35 -33 0 -35 -2 -35 -35 0 -33 2 -35
35 -35 33 0 35 2 35 35 0 33 2 35 35 35 33 0 35 2 35 35 0 33 -2 35 -35 35
-33 0 -35 -2 -35 -35z"/>
<path d="M1870 7035 l0 -35 75 0 75 0 0 -75 0 -75 70 0 70 0 0 40 c0 39 -1 40
-35 40 l-35 0 0 70 0 70 -110 0 -110 0 0 -35z"/>
<path d="M500 6890 c0 -39 1 -40 35 -40 34 0 35 1 35 40 0 39 -1 40 -35 40
-34 0 -35 -1 -35 -40z"/>
<path d="M2370 6785 l0 -65 -30 0 c-28 0 -30 -3 -30 -35 0 -32 2 -35 30 -35
l30 0 0 -70 0 -70 35 0 c33 0 35 2 35 35 0 34 1 35 40 35 l40 0 0 105 0 105
35 0 c32 0 35 2 35 30 l0 30 -110 0 -110 0 0 -65z"/>
<path d="M3890 6755 c0 -33 2 -35 35 -35 33 0 35 2 35 35 0 33 -2 35 -35 35
-33 0 -35 -2 -35 -35z"/>
<path d="M4460 6755 c0 -33 2 -35 35 -35 33 0 35 2 35 35 0 33 -2 35 -35 35
-33 0 -35 -2 -35 -35z"/>
<path d="M4680 6405 l0 -245 35 0 35 0 0 245 0 245 -35 0 -35 0 0 -245z"/>
<path d="M860 6330 c0 -28 2 -30 40 -30 38 0 40 2 40 30 0 28 -2 30 -40 30
-38 0 -40 -2 -40 -30z"/>
<path d="M2230 6330 l0 -30 70 0 70 0 0 30 0 30 -70 0 -70 0 0 -30z"/>
<path d="M570 6265 c0 -33 -2 -35 -35 -35 -33 0 -35 -2 -35 -35 l0 -35 70 0
70 0 0 35 c0 34 1 35 40 35 39 0 40 1 40 35 l0 35 -75 0 -75 0 0 -35z"/>
<path d="M790 6160 l0 -70 -35 0 -35 0 0 -110 0 -110 35 0 c33 0 35 -2 35 -35
0 -33 -2 -35 -35 -35 l-35 0 0 -110 0 -110 -40 0 c-39 0 -40 -1 -40 -35 0 -34
1 -35 40 -35 39 0 40 1 40 35 0 33 2 35 35 35 33 0 35 2 35 35 0 33 2 35 35
35 l35 0 0 75 0 75 40 0 c39 0 40 1 40 35 0 34 -1 35 -40 35 l-40 0 0 180 0
180 -35 0 -35 0 0 -70z"/>
<path d="M2950 6055 c0 -33 2 -35 35 -35 33 0 35 2 35 35 0 33 -2 35 -35 35
-33 0 -35 -2 -35 -35z"/>
<path d="M1010 5765 c0 -33 2 -35 35 -35 33 0 35 2 35 35 0 33 -2 35 -35 35
-33 0 -35 -2 -35 -35z"/>
<path d="M1870 5545 c0 -33 2 -35 35 -35 33 0 35 2 35 35 0 33 -2 35 -35 35
-33 0 -35 -2 -35 -35z"/>
<path d="M5470 5295 l0 -65 35 0 35 0 0 65 0 65 -35 0 -35 0 0 -65z"/>
<path d="M5470 4905 c0 -33 2 -35 35 -35 33 0 35 2 35 35 0 33 -2 35 -35 35
-33 0 -35 -2 -35 -35z"/>
<path d="M5180 4835 c0 -33 2 -35 35 -35 l35 0 0 -70 0 -70 35 0 c33 0 35 -2
35 -35 l0 -35 -110 0 -110 0 0 -175 0 -175 -30 0 c-28 0 -30 -3 -30 -35 0 -33
-2 -35 -35 -35 l-35 0 0 -75 0 -75 35 0 35 0 0 -70 0 -70 30 0 30 0 0 -65 0
-65 75 0 75 0 0 30 c0 28 3 30 35 30 33 0 35 2 35 35 0 33 -2 35 -35 35 l-35
0 0 110 0 110 -35 0 c-33 0 -35 2 -35 35 0 33 2 35 35 35 33 0 35 2 35 35 0
33 2 35 35 35 33 0 35 2 35 35 0 34 1 35 40 35 l40 0 0 110 0 110 -40 0 c-38
0 -40 2 -40 30 l0 30 75 0 75 0 0 70 0 70 -35 0 c-33 0 -35 2 -35 35 0 34 -1
35 -40 35 -39 0 -40 1 -40 35 l0 35 -70 0 -70 0 0 -35z m-80 -740 l0 -75 -30
0 -30 0 0 75 0 75 30 0 30 0 0 -75z"/>
<path d="M5610 4590 l0 -140 -35 0 c-33 0 -35 -2 -35 -35 0 -33 2 -35 35 -35
l35 0 0 -70 0 -70 -35 0 -35 0 0 -145 0 -145 35 0 c33 0 35 -2 35 -35 0 -33
-2 -35 -35 -35 -33 0 -35 -2 -35 -35 0 -33 2 -35 35 -35 32 0 35 -2 35 -30 0
-28 2 -30 40 -30 l40 0 0 65 0 65 35 0 35 0 0 70 0 70 35 0 c34 0 35 1 35 40
l0 40 -70 0 -70 0 0 35 c0 33 2 35 35 35 l35 0 0 210 0 210 -35 0 -35 0 0 70
0 70 -40 0 -40 0 0 -140z"/>
<path d="M2370 4555 l0 -105 -30 0 -30 0 0 -70 0 -70 -40 0 -40 0 0 -70 0 -70
40 0 40 0 0 70 0 70 65 0 65 0 0 110 0 110 40 0 40 0 0 65 0 65 -75 0 -75 0 0
-105z"/>
<path d="M4820 4485 l0 -105 40 0 40 0 0 -70 0 -70 35 0 35 0 0 105 0 105 -35
0 -35 0 0 70 0 70 -40 0 -40 0 0 -105z"/>
<path d="M6550 4520 l0 -70 35 0 c33 0 35 -2 35 -35 0 -33 2 -35 35 -35 33 0
35 2 35 35 0 33 -2 35 -35 35 l-35 0 0 70 0 70 -35 0 -35 0 0 -70z"/>
<path d="M2950 4490 c0 -39 1 -40 35 -40 34 0 35 1 35 40 0 39 -1 40 -35 40
-34 0 -35 -1 -35 -40z"/>
<path d="M3520 4415 l0 -35 -70 0 -70 0 0 -35 c0 -33 2 -35 35 -35 l35 0 0
-70 0 -70 -35 0 -35 0 0 -145 0 -145 -35 0 c-33 0 -35 -2 -35 -35 l0 -35 105
0 105 0 0 180 0 180 40 0 40 0 0 -145 0 -145 35 0 35 0 0 -100 0 -100 35 0 35
0 0 -75 0 -75 35 0 c33 0 35 -2 35 -35 0 -34 1 -35 40 -35 39 0 40 1 40 35 0
34 -1 35 -40 35 l-40 0 0 140 0 140 -35 0 -35 0 0 180 0 180 35 0 c33 0 35 -2
35 -35 0 -34 1 -35 40 -35 39 0 40 1 40 35 0 34 -1 35 -40 35 -39 0 -40 1 -40
35 0 33 -2 35 -35 35 l-35 0 0 70 0 70 -35 0 c-33 0 -35 2 -35 35 l0 35 -75 0
-75 0 0 -35z"/>
<path d="M8270 4345 c0 -34 1 -35 40 -35 39 0 40 1 40 35 0 34 -1 35 -40 35
-39 0 -40 -1 -40 -35z"/>
<path d="M2020 4060 l0 -40 -40 0 c-39 0 -40 -1 -40 -35 0 -33 -2 -35 -35 -35
l-35 0 0 -70 0 -70 -35 0 c-32 0 -35 -2 -35 -30 0 -28 3 -30 35 -30 32 0 35 2
35 30 0 28 3 30 35 30 33 0 35 2 35 35 0 34 1 35 40 35 l40 0 0 70 0 70 35 0
c34 0 35 1 35 40 0 39 -1 40 -35 40 -34 0 -35 -1 -35 -40z"/>
<path d="M1510 3950 l0 -70 70 0 70 0 0 35 c0 34 1 35 40 35 39 0 40 1 40 35
l0 35 -110 0 -110 0 0 -70z"/>
<path d="M3100 3850 l0 -100 35 0 35 0 0 -220 0 -220 35 0 35 0 0 -70 0 -70
35 0 35 0 0 -145 0 -145 -35 0 -35 0 0 -70 0 -70 -35 0 -35 0 0 -140 0 -140
35 0 35 0 0 110 0 110 35 0 35 0 0 100 0 100 35 0 35 0 0 290 0 290 -35 0 -35
0 0 145 0 145 -35 0 -35 0 0 100 0 100 -70 0 -70 0 0 -100z"/>
<path d="M6690 3915 c0 -34 1 -35 40 -35 39 0 40 1 40 35 0 34 -1 35 -40 35
-39 0 -40 -1 -40 -35z"/>
<path d="M6840 3570 c0 -39 1 -40 35 -40 34 0 35 1 35 40 0 39 -1 40 -35 40
-34 0 -35 -1 -35 -40z"/>
<path d="M2160 3385 l0 -145 35 0 c33 0 35 -2 35 -35 0 -34 1 -35 40 -35 39 0
40 -1 40 -35 0 -32 2 -35 30 -35 28 0 30 -2 30 -40 0 -39 1 -40 35 -40 34 0
35 1 35 40 l0 40 40 0 40 0 0 -40 c0 -39 1 -40 35 -40 34 0 35 1 35 40 0 39 1
40 35 40 33 0 35 2 35 35 l0 35 -70 0 -70 0 0 35 0 35 -105 0 -105 0 0 35 c0
34 -1 35 -40 35 l-40 0 0 110 0 110 -35 0 -35 0 0 -145z"/>
<path d="M2730 3495 c0 -33 -2 -35 -35 -35 -34 0 -35 -1 -35 -40 l0 -40 75 0
75 0 0 75 0 75 -40 0 c-39 0 -40 -1 -40 -35z"/>
<path d="M3740 3240 l0 -140 35 0 35 0 0 -210 0 -210 -35 0 -35 0 0 65 0 65
-35 0 c-33 0 -35 2 -35 35 0 33 -2 35 -35 35 l-35 0 0 -70 0 -70 35 0 35 0 0
-240 0 -240 -75 0 -75 0 0 -35 c0 -33 -2 -35 -35 -35 l-35 0 0 -75 0 -75 35 0
35 0 0 -70 0 -70 -35 0 c-33 0 -35 2 -35 35 l0 35 -70 0 -70 0 0 70 0 70 -35
0 -35 0 0 -105 0 -105 35 0 c33 0 35 -2 35 -35 0 -33 2 -35 35 -35 33 0 35 -2
35 -35 0 -33 -2 -35 -35 -35 l-35 0 0 -180 0 -180 215 0 215 0 0 35 0 35 75 0
75 0 0 35 c0 33 2 35 35 35 l35 0 0 110 0 110 -35 0 c-33 0 -35 -2 -35 -35 l0
-35 -75 0 -75 0 0 70 0 70 35 0 c33 0 35 2 35 35 0 34 1 35 40 35 l40 0 0 70
0 70 35 0 35 0 0 75 0 75 35 0 c33 0 35 2 35 35 0 33 -2 35 -35 35 -33 0 -35
-2 -35 -35 l0 -35 -75 0 -75 0 0 65 0 65 40 0 40 0 0 70 0 70 35 0 35 0 0 110
0 110 75 0 75 0 0 -75 0 -75 30 0 30 0 0 -135 0 -135 70 0 70 0 0 65 0 65 -35
0 -35 0 0 70 0 70 -35 0 -35 0 0 75 0 75 35 0 c34 0 35 -1 35 -40 0 -39 1 -40
35 -40 33 0 35 -2 35 -35 0 -34 1 -35 40 -35 l40 0 0 105 0 105 -40 0 c-38 0
-40 -2 -40 -30 0 -28 -3 -30 -35 -30 l-35 0 0 65 0 65 -35 0 c-33 0 -35 2 -35
35 0 32 -2 35 -30 35 -28 0 -30 3 -30 35 l0 35 65 0 65 0 0 -35 c0 -33 2 -35
35 -35 l35 0 0 70 0 70 -35 0 c-34 0 -35 1 -35 40 0 39 -1 40 -35 40 -34 0
-35 -1 -35 -40 0 -38 -2 -40 -30 -40 -28 0 -30 -3 -30 -35 0 -34 -1 -35 -40
-35 l-40 0 0 110 0 110 -70 0 -70 0 0 70 0 70 -40 0 c-39 0 -40 1 -40 35 0 33
-2 35 -35 35 l-35 0 0 -140z m-70 -1375 c0 -33 -2 -35 -35 -35 l-35 0 0 -110
0 -110 35 0 c34 0 35 1 35 40 0 39 1 40 35 40 l35 0 0 -75 0 -75 -70 0 -70 0
0 -35 c0 -34 -1 -35 -40 -35 l-40 0 0 215 0 215 75 0 75 0 0 -35z"/>
<path d="M3020 3275 c0 -33 -2 -35 -35 -35 l-35 0 0 -70 0 -70 -35 0 c-34 0
-35 -1 -35 -40 l0 -40 70 0 70 0 0 110 0 110 40 0 c39 0 40 1 40 35 0 34 -1
35 -40 35 -39 0 -40 -1 -40 -35z"/>
<path d="M4600 3275 c0 -34 1 -35 40 -35 39 0 40 1 40 35 0 34 -1 35 -40 35
-39 0 -40 -1 -40 -35z"/>
<path d="M6910 3205 c0 -33 2 -35 35 -35 33 0 35 2 35 35 0 33 -2 35 -35 35
-33 0 -35 -2 -35 -35z"/>
<path d="M5540 3135 c0 -33 2 -35 35 -35 34 0 35 -1 35 -40 l0 -40 40 0 40 0
0 75 0 75 -75 0 -75 0 0 -35z"/>
<path d="M5400 3060 c0 -39 1 -40 35 -40 34 0 35 1 35 40 0 39 -1 40 -35 40
-34 0 -35 -1 -35 -40z"/>
<path d="M2020 2950 l0 -70 35 0 c33 0 35 2 35 35 0 33 2 35 35 35 l35 0 0
-70 0 -70 -35 0 c-33 0 -35 -2 -35 -35 l0 -35 70 0 70 0 0 -70 0 -70 70 0 70
0 0 40 c0 39 1 40 35 40 32 0 35 2 35 30 0 28 -3 30 -35 30 -33 0 -35 2 -35
35 0 33 2 35 35 35 33 0 35 2 35 35 0 34 1 35 40 35 39 0 40 1 40 35 l0 35
-105 0 -105 0 0 35 0 35 -145 0 -145 0 0 -70z m290 -105 c0 -34 -1 -35 -40
-35 -39 0 -40 1 -40 35 0 34 1 35 40 35 39 0 40 -1 40 -35z"/>
<path d="M2950 2915 c0 -33 -2 -35 -35 -35 -33 0 -35 -2 -35 -35 0 -33 -2 -35
-35 -35 -33 0 -35 -2 -35 -35 0 -34 -1 -35 -40 -35 -38 0 -40 -2 -40 -30 0
-28 -3 -30 -35 -30 -34 0 -35 -1 -35 -40 0 -39 -1 -40 -35 -40 -33 0 -35 -2
-35 -35 l0 -35 -110 0 -110 0 0 -35 0 -35 145 0 145 0 0 35 c0 33 2 35 35 35
33 0 35 2 35 35 0 34 1 35 40 35 l40 0 0 70 0 70 35 0 c33 0 35 2 35 35 0 33
2 35 35 35 33 0 35 2 35 35 0 33 2 35 35 35 33 0 35 2 35 35 0 33 -2 35 -35
35 -33 0 -35 -2 -35 -35z"/>
<path d="M5610 2845 c0 -34 1 -35 40 -35 39 0 40 1 40 35 0 34 -1 35 -40 35
-39 0 -40 -1 -40 -35z"/>
<path d="M2370 2355 c0 -33 2 -35 35 -35 33 0 35 2 35 35 0 33 -2 35 -35 35
-33 0 -35 -2 -35 -35z"/>
<path d="M3020 2290 c0 -28 2 -30 40 -30 38 0 40 2 40 30 0 28 -2 30 -40 30
-38 0 -40 -2 -40 -30z"/>
<path d="M3170 2255 l0 -65 70 0 70 0 0 35 c0 33 -2 35 -35 35 -32 0 -35 2
-35 30 0 28 -3 30 -35 30 l-35 0 0 -65z"/>
<path d="M2520 2225 c0 -34 -1 -35 -40 -35 l-40 0 0 -40 0 -40 110 0 110 0 0
40 c0 39 1 40 35 40 33 0 35 2 35 35 l0 35 -105 0 -105 0 0 -35z"/>
<path d="M2520 1970 l0 -70 35 0 35 0 0 70 0 70 -35 0 -35 0 0 -70z"/>
<path d="M1800 1900 l0 -70 35 0 35 0 0 70 0 70 -35 0 -35 0 0 -70z"/>
<path d="M2730 1435 c0 -34 1 -35 40 -35 39 0 40 1 40 35 0 34 -1 35 -40 35
-39 0 -40 -1 -40 -35z"/>
<path d="M4970 930 c0 -28 3 -30 35 -30 32 0 35 2 35 30 0 28 -3 30 -35 30
-32 0 -35 -2 -35 -30z"/>
<path d="M4900 725 c0 -34 -1 -35 -40 -35 l-40 0 0 -70 0 -70 -35 0 c-33 0
-35 -2 -35 -35 0 -33 2 -35 35 -35 33 0 35 -2 35 -35 0 -34 1 -35 40 -35 39 0
40 -1 40 -35 0 -33 2 -35 35 -35 l35 0 0 70 0 70 -35 0 -35 0 0 70 0 70 35 0
35 0 0 70 0 70 -35 0 c-33 0 -35 -2 -35 -35z"/>
<path d="M5180 725 c0 -33 2 -35 35 -35 33 0 35 2 35 35 0 33 -2 35 -35 35
-33 0 -35 -2 -35 -35z"/>
<path d="M5760 230 c0 -39 1 -40 35 -40 34 0 35 1 35 40 0 39 -1 40 -35 40
-34 0 -35 -1 -35 -40z"/>
<path d="M8990 2355 c0 -33 2 -35 35 -35 33 0 35 2 35 35 0 33 -2 35 -35 35
-33 0 -35 -2 -35 -35z"/>
</g>
</svg>
